<?xml version="1.0" encoding="UTF-8"?>
<svg id="Layer_1" data-name="Layer 1" xmlns="http://www.w3.org/2000/svg" viewBox="0 0 644.76 630">
  <path d="m384.05,0h-123.33C112.08,0,0,123.47,0,287.2v149.75c0,43.68,29.83,79.09,66.64,79.09h0c7.88,0,14.26,7.58,14.26,16.93v29.29h26.82v12.01c0,29.28,19.01,54.82,43.67,55.7,25.52.91,46.44-23.37,46.44-53.45v-140.95c0-29.28-19.01-54.82-43.67-55.69-25.52-.91-46.44,23.37-46.44,53.45v2.5h-26.82v41.06c0,9.35-6.38,16.93-14.26,16.93h0c-26.46,0-47.9-25.45-47.9-56.85v-149.75C18.73,133.67,120.5,22.24,260.71,22.24h123.33c140.21,0,241.98,111.44,241.98,264.97v149.75c0,31.4-21.45,56.85-47.9,56.85h0c-7.88,0-14.26-7.58-14.26-16.93v-41.06h-26.82v-.25c0-29.28-19.01-54.82-43.67-55.7-25.52-.91-46.44,23.37-46.44,53.45v140.95c0,29.28,19.01,54.82,43.67,55.7,25.52.91,46.44-23.37,46.44-53.45v-14.26h26.82v-29.29c0-9.35,6.39-16.93,14.26-16.93h0c36.8,0,66.64-35.41,66.64-79.09v-149.75C644.76,123.47,532.68,0,384.05,0Z" fill="#fff"/>
  <path d="m322.66,110.41c-9.21,0-16.67,7.46-16.67,16.67v255.27c0,9.2,7.46,16.67,16.67,16.67s16.67-7.46,16.67-16.67V127.08c0-9.21-7.46-16.67-16.67-16.67Z" fill="#fff"/>
  <path d="m371.94,160.15c-9.2,0-16.67,7.46-16.67,16.67v179.18c0,9.2,7.46,16.67,16.67,16.67s16.67-7.46,16.67-16.67v-179.18c0-9.2-7.46-16.67-16.67-16.67Z" fill="#fff"/>
  <path d="m274.11,147.38c-9.2,0-16.67,7.46-16.67,16.67v179.18c0,9.2,7.46,16.67,16.67,16.67s16.67-7.46,16.67-16.67v-179.18c0-9.2-7.46-16.67-16.67-16.67Z" fill="#fff"/>
  <path d="m224.84,193.1c-9.2,0-16.67,7.46-16.67,16.67v121.11c0,9.2,7.46,16.67,16.67,16.67s16.67-7.46,16.67-16.67v-121.11c0-9.2-7.46-16.67-16.67-16.67Z" fill="#fff"/>
  <path d="m418.32,176.42c-9.2,0-16.67,7.46-16.67,16.67v121.11c0,9.2,7.46,16.67,16.67,16.67s16.67-7.46,16.67-16.67v-121.11c0-9.2-7.46-16.67-16.67-16.67Z" fill="#fff"/>
  <path d="m479.91,288.79v-51.11c0-9.2-7.46-16.67-16.67-16.67s-16.67,7.46-16.67,16.67v51.11c0,9.21,7.46,16.67,16.67,16.67s16.67-7.46,16.67-16.67Z" fill="#fff"/>
  <path d="m524.84,268.82v-11.16c0-9.2-7.46-16.67-16.67-16.67s-16.67,7.46-16.67,16.67v11.16c0,9.2,7.46,16.67,16.67,16.67s16.67-7.46,16.67-16.67Z" fill="#fff"/>
  <path d="m114.69,257.66v11.16c0,9.2,7.46,16.67,16.67,16.67s16.67-7.46,16.67-16.67v-11.16c0-9.2-7.46-16.67-16.67-16.67s-16.67,7.46-16.67,16.67Z" fill="#fff"/>
  <path d="m159.62,237.69v51.11c0,9.21,7.46,16.67,16.67,16.67s16.67-7.46,16.67-16.67v-51.11c0-9.2-7.46-16.67-16.67-16.67s-16.67,7.46-16.67,16.67Z" fill="#fff"/>
</svg>