<?xml version="1.0" encoding="UTF-8"?>
<svg id="Layer_1" data-name="Layer 1" xmlns="http://www.w3.org/2000/svg" xmlns:xlink="http://www.w3.org/1999/xlink" viewBox="0 0 644.76 630">
  <defs>
    <linearGradient id="linear-gradient" x1="328.89" y1="-15.37" x2="318.51" y2="579.89" gradientUnits="userSpaceOnUse">
      <stop offset="0" stop-color="#f5c004"/>
      <stop offset=".64" stop-color="#f58c04"/>
      <stop offset="1" stop-color="#f67504"/>
    </linearGradient>
    <linearGradient id="linear-gradient-2" x1="326.89" y1="21.83" x2="317.92" y2="536.36" xlink:href="#linear-gradient"/>
    <linearGradient id="linear-gradient-3" x1="375.05" y1="22.67" x2="366.08" y2="537.2" xlink:href="#linear-gradient"/>
    <linearGradient id="linear-gradient-4" x1="279.61" y1="21.01" x2="270.64" y2="535.53" xlink:href="#linear-gradient"/>
    <linearGradient id="linear-gradient-5" x1="231.93" y1="20.18" x2="222.96" y2="534.7" xlink:href="#linear-gradient"/>
    <linearGradient id="linear-gradient-6" x1="419.98" y1="23.46" x2="411" y2="537.98" xlink:href="#linear-gradient"/>
    <linearGradient id="linear-gradient-7" x1="463.87" y1="24.22" x2="454.9" y2="538.75" xlink:href="#linear-gradient"/>
    <linearGradient id="linear-gradient-8" x1="507.6" y1="24.98" x2="498.63" y2="539.51" xlink:href="#linear-gradient"/>
    <linearGradient id="linear-gradient-9" x1="140.82" y1="18.59" x2="131.85" y2="533.11" xlink:href="#linear-gradient"/>
    <linearGradient id="linear-gradient-10" x1="184.55" y1="19.35" x2="175.58" y2="533.87" xlink:href="#linear-gradient"/>
  </defs>
  <path d="m383.18,20.57h-121.6C115.04,20.57,4.54,135.98,4.54,289.02v139.97c0,40.83,29.41,73.92,65.7,73.92h0c7.77,0,14.06,7.08,14.06,15.82v27.38h26.44v11.23c0,27.37,18.74,51.24,43.06,52.06,25.16.85,45.79-21.84,45.79-49.96v-131.74c0-27.37-18.74-51.24-43.06-52.06-25.16-.85-45.79,21.84-45.79,49.96v2.33h-26.44v38.38c0,8.74-6.29,15.82-14.06,15.82h0c-26.08,0-47.23-23.79-47.23-53.14v-139.97c0-143.5,100.34-247.66,238.57-247.66h121.6c138.24,0,238.57,104.16,238.57,247.66v139.97c0,29.35-21.14,53.14-47.23,53.14h0c-7.76,0-14.06-7.08-14.06-15.82v-38.38h-26.44v-.24c0-27.37-18.74-51.24-43.06-52.06-25.16-.85-45.79,21.84-45.79,49.96v131.74c0,27.37,18.74,51.24,43.06,52.06,25.16.85,45.79-21.85,45.79-49.96v-13.33h26.44v-27.38c0-8.74,6.3-15.82,14.06-15.82h0c36.28,0,65.7-33.1,65.7-73.92v-139.97c0-153.04-110.5-268.45-257.04-268.45Z" fill="url(#linear-gradient)"/>
  <path d="m322.76,118.15c-8.96,0-16.23,7.26-16.23,16.23v248.54c0,8.96,7.26,16.23,16.23,16.23s16.23-7.27,16.23-16.23v-248.54c0-8.96-7.27-16.23-16.23-16.23Z" fill="url(#linear-gradient-2)"/>
  <path d="m370.74,166.58c-8.96,0-16.23,7.27-16.23,16.23v174.45c0,8.96,7.27,16.23,16.23,16.23s16.23-7.27,16.23-16.23v-174.45c0-8.96-7.27-16.23-16.23-16.23Z" fill="url(#linear-gradient-3)"/>
  <path d="m275.49,154.15c-8.96,0-16.23,7.27-16.23,16.23v174.45c0,8.96,7.27,16.23,16.23,16.23s16.23-7.27,16.23-16.23v-174.45c0-8.96-7.27-16.23-16.23-16.23Z" fill="url(#linear-gradient-4)"/>
  <path d="m227.51,198.66c-8.96,0-16.23,7.27-16.23,16.23v117.91c0,8.96,7.27,16.23,16.23,16.23s16.23-7.27,16.23-16.23v-117.91c0-8.96-7.26-16.23-16.23-16.23Z" fill="url(#linear-gradient-5)"/>
  <path d="m415.89,182.42c-8.96,0-16.23,7.27-16.23,16.23v117.91c0,8.96,7.27,16.23,16.23,16.23s16.23-7.27,16.23-16.23v-117.91c0-8.96-7.27-16.23-16.23-16.23Z" fill="url(#linear-gradient-6)"/>
  <path d="m475.87,291.83v-49.76c0-8.96-7.27-16.23-16.23-16.23s-16.23,7.27-16.23,16.23v49.76c0,8.96,7.27,16.23,16.23,16.23s16.23-7.26,16.23-16.23Z" fill="url(#linear-gradient-7)"/>
  <path d="m519.61,272.39v-10.86c0-8.96-7.27-16.23-16.23-16.23s-16.23,7.27-16.23,16.23v10.86c0,8.96,7.27,16.23,16.23,16.23s16.23-7.27,16.23-16.23Z" fill="url(#linear-gradient-8)"/>
  <path d="m120.26,261.52v10.86c0,8.96,7.27,16.23,16.23,16.23s16.23-7.27,16.23-16.23v-10.86c0-8.96-7.27-16.23-16.23-16.23s-16.23,7.27-16.23,16.23Z" fill="url(#linear-gradient-9)"/>
  <path d="m164.01,242.07v49.76c0,8.96,7.27,16.23,16.23,16.23s16.23-7.26,16.23-16.23v-49.76c0-8.96-7.27-16.23-16.23-16.23s-16.23,7.27-16.23,16.23Z" fill="url(#linear-gradient-10)"/>
</svg>